<?xml version="1.0" encoding="utf-8"?>
<!-- Generator: Adobe Illustrator 24.3.0, SVG Export Plug-In . SVG Version: 6.00 Build 0)  -->
<svg version="1.1" id="Слой_1" xmlns="http://www.w3.org/2000/svg" xmlns:xlink="http://www.w3.org/1999/xlink" x="0px" y="0px"
	 viewBox="0 0 48 48" style="enable-background:new 0 0 48 48;" xml:space="preserve">
<style type="text/css">
	.st0{fill:#0D6EFD;}
	.st1{fill:#FFFFFF;}
</style>
<g id="Слой_1_1_">
	<g>
		<path class="st0" d="M38,48H10C4.5,48,0,43.5,0,38V10C0,4.5,4.5,0,10,0h28c5.5,0,10,4.5,10,10v28C48,43.5,43.5,48,38,48z"/>
	</g>
</g>
<path class="st1" d="M21.7,37.1c0-1.3,1-2.3,2.3-2.3h13.5c1.3,0,2.3,1,2.3,2.3s-1,2.3-2.3,2.3H24C22.7,39.4,21.7,38.3,21.7,37.1z
	 M12.1,15.3c-0.9-0.9-2.3-0.9-3.1,0c-0.9,0.9-0.9,2.3,0,3.1l0,0l7.4,7.4l-7.4,7.4c-0.9,0.9-0.9,2.3,0,3.1c0.9,0.9,2.3,0.9,3.1,0l9-9
	c0.9-0.9,0.9-2.3,0-3.1l0,0L12.1,15.3z"/>
</svg>
